ffmpeg started on 2016-11-28 at 07:32:30
Report written to "Output/NVENCh264/results/ffmpeg/old_town_cross_2160p50llhp13000k.log"
Command line:
Tools/ffmpeg/ffmpeg -benchmark -y -i Input/y4m/old_town_cross_2160p50.y4m -c:v h264_nvenc -preset llhp -b:v 13000k -an Output/NVENCh264/encoded/old_town_cross_2160p50llhp13000k.mkv
ffmpeg version N-82227-gdb23fde Copyright (c) 2000-2016 the FFmpeg developers
  built with gcc 5.4.0 (Ubuntu 5.4.0-6ubuntu1~16.04.2) 20160609
  configuration: --prefix=/home/jaroslav/ffmpeg_build --pkg-config-flags=--static --extra-cflags=-I/home/jaroslav/ffmpeg_build/include --extra-ldflags=-L/home/jaroslav/ffmpeg_build/lib --bindir=/home/jaroslav/bin --enable-gpl --enable-libass --enable-libfdk-aac --enable-libfreetype --enable-libmp3lame --enable-libopus --enable-libtheora --enable-libvorbis --enable-libvpx --enable-libx264 --enable-libx265 --enable-nvenc --enable-libmfx --enable-libxvid --enable-libgsm --enable-libopencore-amrnb --enable-version3 --enable-nonfree
  libavutil      55. 35.100 / 55. 35.100
  libavcodec     57. 66.101 / 57. 66.101
  libavformat    57. 57.100 / 57. 57.100
  libavdevice    57.  2.100 / 57.  2.100
  libavfilter     6. 66.100 /  6. 66.100
  libswscale      4.  3.100 /  4.  3.100
  libswresample   2.  4.100 /  2.  4.100
  libpostproc    54.  2.100 / 54.  2.100
Input #0, yuv4mpegpipe, from 'Input/y4m/old_town_cross_2160p50.y4m':
  Duration: 00:00:10.00, start: 0.000000, bitrate: 4976642 kb/s
    Stream #0:0: Video: rawvideo (I420 / 0x30323449), yuv420p(progressive), 3840x2160, SAR 1:1 DAR 16:9, 50 fps, 50 tbr, 50 tbn, 50 tbc
[h264_nvenc @ 0x379d120] The variable bitrate rate-control requires the 'qmin' and/or 'qmax' option set.
Output #0, matroska, to 'Output/NVENCh264/encoded/old_town_cross_2160p50llhp13000k.mkv':
  Metadata:
    encoder         : Lavf57.57.100
    Stream #0:0: Video: h264 (h264_nvenc) (Main) (H264 / 0x34363248), yuv420p, 3840x2160 [SAR 1:1 DAR 16:9], q=-1--1, 13000 kb/s, 50 fps, 1k tbn, 50 tbc
    Metadata:
      encoder         : Lavc57.66.101 h264_nvenc
    Side data:
      cpb: bitrate max/min/avg: 0/0/13000000 buffer size: 26000000 vbv_delay: -1
Stream mapping:
  Stream #0:0 -> #0:0 (rawvideo (native) -> h264 (h264_nvenc))
Press [q] to stop, [?] for help
frame=   20 fps=0.0 q=0.0 size=       0kB time=00:00:00.00 bitrate=N/A speed=   0x    frame=   38 fps= 27 q=34.0 size=       1kB time=00:00:00.14 bitrate=  42.4kbits/s speed=0.102x    frame=   45 fps= 24 q=32.0 size=       1kB time=00:00:00.28 bitrate=  21.3kbits/s speed=0.149x    frame=   51 fps= 21 q=32.0 size=       1kB time=00:00:00.40 bitrate=  14.9kbits/s speed=0.167x    frame=   64 fps= 20 q=33.0 size=       1kB time=00:00:00.66 bitrate=   9.1kbits/s speed=0.212x    frame=   69 fps= 19 q=33.0 size=       1kB time=00:00:00.76 bitrate=   7.9kbits/s speed=0.21x    frame=   80 fps= 19 q=32.0 size=       1kB time=00:00:00.98 bitrate=   6.1kbits/s speed=0.228x    frame=   83 fps= 16 q=33.0 size=       1kB time=00:00:01.04 bitrate=   5.7kbits/s speed=0.204x    frame=   86 fps= 15 q=31.0 size=       1kB time=00:00:01.10 bitrate=   5.4kbits/s speed=0.186x    frame=  103 fps= 15 q=32.0 size=       1kB time=00:00:01.44 bitrate=   4.2kbits/s speed=0.216x    frame=  105 fps= 15 q=32.0 size=       1kB time=00:00:01.48 bitrate=   4.0kbits/s speed=0.205x    frame=  107 fps= 13 q=32.0 size=       1kB time=00:00:01.52 bitrate=   3.9kbits/s speed=0.191x    frame=  111 fps= 13 q=31.0 size=       1kB time=00:00:01.60 bitrate=   3.7kbits/s speed=0.189x    frame=  116 fps= 13 q=31.0 size=       1kB time=00:00:01.70 bitrate=   3.5kbits/s speed=0.187x    frame=  125 fps= 13 q=31.0 size=       1kB time=00:00:01.88 bitrate=   3.2kbits/s speed=0.196x    frame=  143 fps= 14 q=32.0 size=       1kB time=00:00:02.24 bitrate=   2.7kbits/s speed=0.221x    frame=  153 fps= 14 q=32.0 size=       1kB time=00:00:02.44 bitrate=   2.5kbits/s speed=0.227x    frame=  156 fps= 13 q=31.0 size=       1kB time=00:00:02.50 bitrate=   2.4kbits/s speed=0.214x    frame=  157 fps= 13 q=32.0 size=       1kB time=00:00:02.52 bitrate=   2.4kbits/s speed=0.203x    frame=  159 fps= 12 q=32.0 size=       1kB time=00:00:02.56 bitrate=   2.3kbits/s speed=0.194x    frame=  161 fps= 12 q=31.0 size=       1kB time=00:00:02.60 bitrate=   2.3kbits/s speed=0.187x    frame=  162 fps= 11 q=32.0 size=       1kB time=00:00:02.62 bitrate=   2.3kbits/s speed=0.182x    frame=  166 fps= 11 q=32.0 size=       1kB time=00:00:02.70 bitrate=   2.2kbits/s speed=0.177x    frame=  168 fps= 10 q=32.0 size=       1kB time=00:00:02.74 bitrate=   2.2kbits/s speed=0.168x    frame=  174 fps= 10 q=31.0 size=       1kB time=00:00:02.86 bitrate=   2.1kbits/s speed=0.169x    frame=  177 fps= 10 q=32.0 size=       1kB time=00:00:02.92 bitrate=   2.0kbits/s speed=0.166x    frame=  178 fps=9.9 q=33.0 size=       1kB time=00:00:02.94 bitrate=   2.0kbits/s speed=0.163x    frame=  180 fps=9.6 q=32.0 size=       1kB time=00:00:02.98 bitrate=   2.0kbits/s speed=0.159x    frame=  184 fps=9.5 q=31.0 size=       1kB time=00:00:03.06 bitrate=   2.0kbits/s speed=0.158x    frame=  187 fps=9.4 q=33.0 size=       1kB time=00:00:03.12 bitrate=   1.9kbits/s speed=0.156x    frame=  192 fps=9.3 q=33.0 size=       1kB time=00:00:03.22 bitrate=   1.9kbits/s speed=0.156x    frame=  195 fps=9.2 q=32.0 size=    5123kB time=00:00:03.28 bitrate=12790.6kbits/s speed=0.154x    frame=  211 fps=9.7 q=31.0 size=    5123kB time=00:00:03.60 bitrate=11654.0kbits/s speed=0.166x    frame=  216 fps=9.7 q=33.0 size=    5123kB time=00:00:03.70 bitrate=11339.1kbits/s speed=0.166x    frame=  222 fps=9.7 q=32.0 size=    5123kB time=00:00:03.82 bitrate=10983.0kbits/s speed=0.168x    frame=  236 fps= 10 q=31.0 size=    5123kB time=00:00:04.10 bitrate=10233.1kbits/s speed=0.174x    frame=  254 fps= 11 q=32.0 size=    5123kB time=00:00:04.46 bitrate=9407.3kbits/s speed=0.186x    frame=  272 fps= 11 q=33.0 size=    5123kB time=00:00:04.82 bitrate=8704.8kbits/s speed=0.196x    frame=  290 fps= 12 q=31.0 size=    7836kB time=00:00:05.18 bitrate=12389.6kbits/s speed=0.207x    frame=  308 fps= 12 q=31.0 size=    7836kB time=00:00:05.54 bitrate=11584.6kbits/s speed=0.217x    frame=  326 fps= 12 q=33.0 size=    7836kB time=00:00:05.90 bitrate=10877.9kbits/s speed=0.226x    frame=  344 fps= 13 q=33.0 size=    7836kB time=00:00:06.26 bitrate=10252.4kbits/s speed=0.235x    frame=  362 fps= 13 q=33.0 size=    7836kB time=00:00:06.62 bitrate=9695.0kbits/s speed=0.244x    frame=  373 fps= 13 q=32.0 size=    7836kB time=00:00:06.84 bitrate=9383.2kbits/s speed=0.247x    frame=  391 fps= 14 q=32.0 size=    7836kB time=00:00:07.20 bitrate=8914.1kbits/s speed=0.255x    frame=  409 fps= 14 q=32.0 size=    7836kB time=00:00:07.56 bitrate=8489.7kbits/s speed=0.263x    frame=  427 fps= 15 q=32.0 size=    7836kB time=00:00:07.92 bitrate=8103.8kbits/s speed=0.27x    frame=  444 fps= 15 q=32.0 size=   12963kB time=00:00:08.26 bitrate=12854.8kbits/s speed=0.277x    frame=  462 fps= 15 q=33.0 size=   12963kB time=00:00:08.62 bitrate=12318.0kbits/s speed=0.284x    frame=  476 fps= 15 q=33.0 size=   12963kB time=00:00:08.90 bitrate=11930.5kbits/s speed=0.287x    frame=  494 fps= 16 q=34.0 size=   12963kB time=00:00:09.26 bitrate=11466.7kbits/s speed=0.293x    frame=  500 fps= 16 q=31.0 Lsize=   15872kB time=00:00:09.98 bitrate=13027.2kbits/s speed=0.311x    
video:15867kB audio:0kB subtitle:0kB other streams:0kB global headers:0kB muxing overhead: 0.029702%
bench: utime=1.284s
bench: maxrss=1403968kB
